# xmcd
#
# Track frame offsets:
#	150
#	27313
#	41303
#	61233
#	78131
#	97184
#	115007
#	143785
#
# Disc length: 2252 seconds
# Revision: 0
# Processed by: cddbd v1.5.2PL0 Copyright (c) Steve Scherf et al.
# Submitted via: dBpowerAMP V12.0
#
DISCID=5d08ca08
DTITLE=James Bolden - James Bolden's Deep Blue
DYEAR=1999
DGENRE=Blues
TTITLE0=Boogie Children
TTITLE1=Tin Pan Alley
TTITLE2=You Don't Have To Go
TTITLE3=I've Got My Mojo Working
TTITLE4=If I Had A Hammer
TTITLE5=Rock Me Baby
TTITLE6=Goin' Down Slow
TTITLE7=Deep Blue
EXTD=
EXTT0=
EXTT1=
EXTT2=
EXTT3=
EXTT4=
EXTT5=
EXTT6=
EXTT7=
PLAYORDER=
